<?xml version="1.0" encoding="UTF-8" standalone="no"?><svg xmlns="http://www.w3.org/2000/svg" xmlns:xlink="http://www.w3.org/1999/xlink" fill="#000000" height="271.5" preserveAspectRatio="xMidYMid meet" version="1" viewBox="6.4 6.4 285.1 271.5" width="285.1" zoomAndPan="magnify"><g id="change1_1"><path d="M39.5,6.4L25.1,20.9L10.6,6.4l-4.1,4.1L21,24.9L6.5,39.4l4.1,4.1L25.1,29l14.5,14.5l4.1-4.1L29.1,24.9 l14.5-14.5L39.5,6.4z M122.1,6.4l-14.5,14.5L93.2,6.4l-4.1,4.1l14.5,14.5L89.2,39.4l4.1,4.1L107.7,29l14.5,14.5l4.1-4.1l-14.5-14.5 l14.5-14.5L122.1,6.4z M204.8,6.4l-14.5,14.5L175.8,6.4l-4.1,4.1l14.5,14.5l-14.5,14.5l4.1,4.1L190.3,29l14.5,14.5l4.1-4.1 l-14.5-14.5l14.5-14.5L204.8,6.4z M291.4,10.5l-4.1-4.1l-14.5,14.5L258.5,6.4l-4.1,4.1l14.5,14.5l-14.5,14.5l4.1,4.1L272.9,29 l14.5,14.5l4.1-4.1L277,24.9L291.4,10.5z M39.5,84.5L25.1,99L10.6,84.5l-4.1,4.1L21,103L6.5,117.5l4.1,4.1l14.5-14.5l14.5,14.5 l4.1-4.1L29.1,103l14.5-14.5L39.5,84.5z M122.1,84.5L107.7,99L93.2,84.5l-4.1,4.1l14.5,14.5l-14.5,14.5l4.1,4.1l14.5-14.5l14.5,14.5 l4.1-4.1L111.7,103l14.5-14.5L122.1,84.5z M204.8,84.5L190.3,99l-14.5-14.5l-4.1,4.1l14.5,14.5l-14.5,14.5l4.1,4.1l14.5-14.5 l14.5,14.5l4.1-4.1L194.4,103l14.5-14.5L204.8,84.5z M287.4,84.5L272.9,99l-14.5-14.5l-4.1,4.1l14.5,14.5l-14.5,14.5l4.1,4.1 l14.5-14.5l14.5,14.5l4.1-4.1L277,103l14.5-14.5L287.4,84.5z M39.5,162.6l-14.5,14.5l-14.5-14.5l-4.1,4.1L21,181.2L6.5,195.6 l4.1,4.1l14.5-14.5l14.5,14.5l4.1-4.1l-14.5-14.5l14.5-14.5L39.5,162.6z M122.1,162.6l-14.5,14.5l-14.5-14.5l-4.1,4.1l14.5,14.5 l-14.5,14.5l4.1,4.1l14.5-14.5l14.5,14.5l4.1-4.1l-14.5-14.5l14.5-14.5L122.1,162.6z M204.8,162.6l-14.5,14.5l-14.5-14.5l-4.1,4.1 l14.5,14.5l-14.5,14.5l4.1,4.1l14.5-14.5l14.5,14.5l4.1-4.1l-14.5-14.5l14.5-14.5L204.8,162.6z M287.4,162.6l-14.5,14.5l-14.5-14.5 l-4.1,4.1l14.5,14.5l-14.5,14.5l4.1,4.1l14.5-14.5l14.5,14.5l4.1-4.1L277,181.1l14.5-14.5L287.4,162.6z M39.5,240.7l-14.5,14.5 l-14.5-14.5l-4.1,4.1L21,259.3L6.6,273.7l4.1,4.1l14.5-14.5l14.5,14.5l4.1-4.1l-14.5-14.5l14.5-14.5L39.5,240.7z M122.2,240.7 l-14.5,14.5l-14.5-14.5l-4.1,4.1l14.5,14.5l-14.5,14.5l4.1,4.1l14.5-14.5l14.5,14.5l4.1-4.1l-14.5-14.5l14.5-14.5L122.2,240.7z M204.8,240.7l-14.5,14.5l-14.5-14.5l-4.1,4.1l14.5,14.5l-14.5,14.5l4.1,4.1l14.5-14.5l14.5,14.5l4.1-4.1l-14.5-14.5l14.5-14.5 L204.8,240.7z M287.4,240.7l-14.5,14.5l-14.5-14.5l-4.1,4.1l14.5,14.5l-14.5,14.5l4.1,4.1l14.5-14.5l14.5,14.5l4.1-4.1L277,259.2 l14.5-14.5L287.4,240.7z" fill="#80f0ff"/></g></svg>