<?xml version="1.0" encoding="UTF-8"?><svg xmlns="http://www.w3.org/2000/svg" xmlns:xlink="http://www.w3.org/1999/xlink" height="1745.9" preserveAspectRatio="xMidYMid meet" version="1.0" viewBox="-1.9 -0.0 2231.2 1745.9" width="2231.2" zoomAndPan="magnify"><g><g fill="#41e1f2" id="change1_1"><path d="M690.5,803.89l-1.25-1.17c-17.46-15.45-34.27-31.56-50.53-47.13-15.02-14.39-30.55-29.27-46.81-43.86-8.4-6.99-15.74-14.15-22.83-21.08-4.29-4.2-8.73-8.53-13.42-12.85-11.11-9.53-21.55-19.53-31.65-29.19-5.05-4.83-10.26-9.82-15.5-14.7-4.55-4.42-8.91-8.11-15.03-12.73-30.02-28.2-59.94-55.97-88.87-82.83-28.93-26.85-58.84-54.62-88.82-82.79-54.66-52.06-109.7-103.25-162.93-152.76-13.56-12.61-27.14-25.24-40.74-37.91l.34-.37c13.6,12.67,27.18,25.29,40.74,37.91,53.23,49.5,108.27,100.69,162.93,152.76,29.98,28.17,59.89,55.93,88.82,82.79,28.94,26.86,58.86,54.64,88.85,82.82,6.12,4.62,10.49,8.31,15.06,12.75,5.23,4.87,10.45,9.87,15.5,14.7,10.09,9.66,20.53,19.65,31.63,29.18,4.7,4.33,9.14,8.67,13.44,12.87,7.08,6.92,14.41,14.08,22.8,21.06,16.27,14.6,31.81,29.49,46.83,43.88,15.89,15.22,32.3,30.94,49.33,46.07-33.76-57.5-67.83-115.99-100.79-172.57-58.44-100.32-118.87-204.06-179.28-305.23-5.97-13.48-13.37-25.03-21.2-37.25-5.33-8.31-10.83-16.89-15.8-26.09-15.36-28-30.61-53.75-46.76-81.02-2.26-3.81-4.52-7.64-6.79-11.48l-.03-.07c-10.44-40.77-21.93-81.54-33.04-120.97-4.28-15.2-8.71-30.92-13.05-46.51l.48-.13c4.34,15.6,8.76,31.31,13.05,46.51,11.11,39.42,22.59,80.18,33.03,120.94,2.26,3.83,4.52,7.64,6.78,11.45,16.15,27.27,31.41,53.03,46.77,81.03,4.96,9.18,10.46,17.76,15.78,26.06,7.85,12.24,15.26,23.8,21.23,37.29,60.4,101.15,120.83,204.89,179.26,305.21,33.22,57.02,67.56,115.98,101.58,173.92l.87,1.48Z"/><path d="M693.97,1708.2l.25-1.54c22.7-137.26,45.34-275.73,67.24-409.64l.23-1.41,.07-.06c16-13.26,32.31-24.93,49.58-37.29,15.08-10.79,30.68-21.95,46.05-34.27,.35-.4,1.23-.63,2.17-.88,.78-.21,1.67-.44,1.95-.76,10.59-7.5,20.65-15.15,30.39-22.56,13.4-10.19,27.25-20.73,42.3-30.68,21.22-14.9,40.31-29.49,60.52-44.94,1.82-1.39,3.66-2.8,5.5-4.21,7.05-13.36,14.15-26.74,21.27-40.08-59.31-49.18-118.68-99.83-176.11-148.81-52.92-45.15-107.64-91.82-162.25-137.3-.01,0-.02-.02-.03-.03h0l-.37-.31,.46-.12c7.91-2.68,15.92-4.76,24.4-6.96,6.14-1.59,12.49-3.24,18.74-5.13,42.38-11.75,74.23-20.31,111.61-29.3,.99-.4,1.64-.78,2.34-1.18,.68-.39,1.38-.8,2.44-1.22,1.97-.45,3.88-.86,5.73-1.25,6.33-1.34,12.31-2.6,18.68-5.16l14.74-3.01c.98-.4,1.64-.78,2.33-1.18,.68-.39,1.38-.8,2.44-1.22l14.74-3.01c5.86-2.35,11.31-4.12,18.75-6.07,11.54-2.46,22.34-5.44,32.79-8.32,10.46-2.89,21.27-5.87,32.82-8.33,7.99-2.24,15.42-4.48,22.6-6.65,7.19-2.17,14.62-4.41,22.64-6.66,6.65-1.46,12.85-3.09,18.85-4.66,6-1.58,12.21-3.21,18.86-4.66,39.72-10.86,77.65-21.03,114.32-30.88,36.68-9.84,74.6-20.02,114.33-30.88,11.83-3.54,23.16-6.73,34.12-9.82,2.27-.64,4.56-1.29,6.86-1.94,27.07-13.08,54.34-25.69,80.93-37.99,11.81-5.46,24.03-11.11,35.96-16.68l.21,.45c-11.93,5.57-24.15,11.21-35.96,16.68-25.75,11.91-52.14,24.11-78.36,36.75,7.94-2.25,16.08-4.59,24.48-7.1,29.98-8.16,58.16-15.77,85.4-23.14s55.42-14.98,85.4-23.14c14.58-3.71,28.53-7.54,42.02-11.24,20.8-5.71,40.45-11.1,62.61-16.23,.49-.2,1.07-.37,1.64-.54,1.68-.49,3.26-.96,3.66-2.44,1.29-6.88,3.43-13.15,5.49-19.21,1.38-4.04,2.8-8.21,3.96-12.52,9.54-27.04,19.39-54.97,28.35-83.16l.05-.09c65.15-71.88,132.91-143.6,198.44-212.97,32.57-33.86,66.65-66.96,99.6-98.97,19.72-19.16,40.11-38.97,60.02-58.77l.35,.35c-19.91,19.81-40.3,39.62-60.02,58.78-32.95,32.01-67.02,65.1-99.58,98.96-65.51,69.35-133.26,141.06-198.39,212.92-8.96,28.17-18.81,56.1-28.34,83.1-1.16,4.31-2.58,8.49-3.96,12.53-2.06,6.05-4.19,12.3-5.48,19.16-.48,1.77-2.27,2.3-4,2.81-.55,.16-1.12,.33-1.63,.53-22.19,5.14-41.83,10.53-62.63,16.24-13.49,3.7-27.44,7.53-42.02,11.24-29.97,8.16-58.15,15.77-85.39,23.14s-55.42,14.98-85.4,23.14c-9.36,2.8-18.41,5.38-27.22,7.87-9.36,4.52-18.7,9.11-27.97,13.75,.16,28.56,1.57,57.17,2.94,84.85,1.15,23.16,2.33,47.11,2.8,71.2,1.94,32.6,3.09,62.99,4.32,95.17l.15,3.84-.08,.08c-12.47,11.71-26.07,21.2-40.47,31.25-4.07,2.84-8.28,5.78-12.43,8.75-2.27,1.55-4.49,3.21-6.64,4.8-4.3,3.2-8.76,6.51-13.81,9.18-16.61,11.59-31.54,23.13-47.34,35.36-4.24,3.27-8.54,6.6-12.97,10-.35,.4-1.23,.63-2.16,.88-.78,.21-1.67,.44-1.95,.76-11.58,8.51-22.78,16.92-33.61,25.05-10.84,8.13-22.04,16.54-33.58,25.02-15.65,10.85-30.48,21.81-44.82,32.41-14.35,10.61-29.18,21.57-44.84,32.42-8.71,6.52-17.18,12.97-25.42,19.26-18.46,34.97-36.63,69.84-54.37,103.88-21.72,41.68-44.18,84.77-67.38,128.49-27.68,52.81-54.68,105.11-80.79,155.68-35.08,67.95-68.22,132.14-103.37,198.45h0l-.72,1.39Zm1.04-3.19l.02,.02s.02,.03,.03,.05c34.86-65.77,67.75-129.5,102.57-196.94,26.11-50.58,53.11-102.88,80.79-155.69,23.2-43.71,45.66-86.81,67.38-128.48,17.58-33.73,35.58-68.28,53.87-102.93-1.56,1.19-3.1,2.37-4.64,3.55-20.22,15.45-39.31,30.04-60.54,44.95-15.03,9.94-28.88,20.47-42.27,30.66-9.74,7.41-19.8,15.07-30.36,22.53-.34,.39-1.22,.62-2.16,.87-.78,.21-1.67,.44-1.95,.75-15.41,12.36-31.01,23.52-46.1,34.32-17.24,12.34-33.52,23.99-49.48,37.21l-.2,1.22c-21.8,133.34-44.35,271.21-66.95,407.91Zm-10.69-910.89c54.32,45.25,108.75,91.68,161.39,136.59,57.47,49.03,116.9,99.72,176.26,148.94l.16,.13-.1,.18c-6.99,13.08-13.95,26.2-20.86,39.3,7.97-6.09,16.16-12.31,24.57-18.61,15.65-10.85,30.49-21.82,44.83-32.42,14.34-10.6,29.18-21.57,44.83-32.41,11.53-8.47,22.74-16.88,33.57-25.01,10.84-8.13,22.04-16.54,33.58-25.02,.34-.4,1.23-.63,2.16-.87,.78-.21,1.67-.44,1.95-.76,4.46-3.43,8.76-6.76,13-10.03,15.81-12.22,30.75-23.77,47.39-35.39,5.04-2.67,9.48-5.96,13.77-9.15,2.15-1.6,4.38-3.26,6.65-4.81,4.15-2.97,8.36-5.91,12.43-8.75,14.35-10.01,27.9-19.47,40.33-31.12l-.14-3.62c-1.22-32.17-2.38-62.56-4.32-95.17-.47-24.09-1.65-48.04-2.8-71.19-1.37-27.73-2.79-56.4-2.94-85.03v-.16l.14-.07c8.49-4.25,17.02-8.45,25.58-12.59-1.39,.39-2.77,.78-4.15,1.17-10.96,3.09-22.29,6.28-34.12,9.82-39.74,10.86-77.66,21.04-114.34,30.88-36.68,9.84-74.6,20.02-114.33,30.88-6.65,1.46-12.85,3.09-18.85,4.66-6,1.58-12.21,3.21-18.86,4.66-8,2.24-15.43,4.49-22.61,6.65-7.18,2.17-14.61,4.41-22.63,6.66-11.55,2.46-22.36,5.44-32.81,8.33-10.45,2.89-21.26,5.87-32.81,8.33-7.41,1.95-12.84,3.7-18.72,6.06l-14.74,3.01c-.98,.4-1.64,.78-2.33,1.18-.68,.39-1.39,.8-2.44,1.22l-14.74,3.01c-6.37,2.56-12.37,3.83-18.72,5.17-1.85,.39-3.76,.8-5.68,1.24-.98,.4-1.64,.78-2.34,1.18-.68,.39-1.38,.8-2.44,1.22-37.41,9-69.25,17.56-111.62,29.31-6.26,1.89-12.61,3.54-18.75,5.13-8.1,2.1-15.77,4.1-23.33,6.6,.04,.04,.07,.08,.09,.13,.09,.18,.04,.38-.11,.51-.02,.01-.03,.03-.05,.04Z"/><path d="M1011.97 1086.98L1011.7 1086.56 1119.04 1016.64 1021.47 1079.91 1021.2 1079.49 1320.59 885.33 1320.87 885.74 1011.97 1086.98z"/><path d="M762.45 1294.77L761.95 1294.72 806.67 897.83 806.98 897.96 1060.66 1002.9 1322.71 884.37 1320.88 885.74 803.48 1273.23 803.18 1272.83 1318.75 886.7 1060.67 1003.44 1060.57 1003.4 807.1 898.55 762.45 1294.77z"/><path d="M1320.59 885.74L1175.15 784.35 1175.44 783.94 1320.87 885.33 1320.59 885.74z"/><path d="M1859.8 455.84L1684.58 415.79 1684.53 415.67 1540.01 72.65 1540.48 72.45 1684.95 415.36 1859.91 455.35 1859.8 455.84z"/><path d="M408.6 678.82L385.88 519.94 317.98 167.87 318.47 167.77 386.37 519.86 409.09 678.75 408.6 678.82z"/><path d="M841.83,736.51l-374.32-141.37-.04-.11c-1.45-4.08-145.33-407.79-149.96-411.57l.18-.46c.62,.18,2.49,.72,76.62,206.42,36.09,100.14,72.19,201.43,73.58,205.33l374.1,141.29-.18,.47Z"/><path d="M579.29 600.48L579.04 600.47 467.69 595.2 219.75 574.03 220.07 573.66 306.16 473.19 318 167.27 318.4 167.64 578.71 407.92 578.37 408.29 318.46 168.37 306.65 473.38 306.59 473.45 220.76 573.62 467.73 594.7 578.82 599.96 592.38 403.66 592.88 403.7 579.29 600.48z"/><path d="M918.65 1168.05L806.7 898.39 681.65 860.04 681.8 859.56 807.07 897.98 807.12 898.09 919.11 1167.86 918.65 1168.05z"/><path d="M693.65 1706.11L692.93 1705.43 1320.07 888.52 1320.87 889.13 696.75 1702.09 1531.07 976.22 1841.58 575.31 1685.88 415.54 1421.19 202.34 1421.81 201.56 1686.55 414.8 1842.9 575.24 1842.63 575.58 1531.79 976.9 693.65 1706.11z"/><path d="M1456.23,561.75l1.36-1.09,496.8-398.45-3.01,3.68-305.22,373.53-.2,.02-189.74,22.31Zm491.38-392.82l-488.03,391.42,186.07-21.88,301.96-369.53Z"/><path d="M223.91,575.4l-.86-2.31-3.08,1.42-.18-.51L109.47,267.34l.94-.34h0l113.21,304.72,368.72-169.99L321.63,167.12l5.32,327.19-1,.02-5.36-329.43,273.57,237.09-370.2,170.67,.89,2.39-.94,.35Zm-80.86-217.65l77.49,215.39,2.16-1-79.65-214.39Z"/><path d="M843.42 740.64L840.66 738.54 512.3 489.13 512.25 489.04 320.92 166.66 110.15 267.63 109.72 266.72 321.31 165.36 321.54 165.75 513.06 488.45 838.5 735.65 592.25 401.34 791.47 404.89 791.45 405.89 594.25 402.38 843.42 740.64z"/><path d="M1532.3,978.81l-149.81-220.34,.09-.24,74.81-197.23-.08-.47,.62,.02,383.94,14.22,108.66-409.32,.97,.26-108.86,410.1h-.4l-383.72-14.22,73.79,417.24Zm-148.69-220.47l146.9,216.05-72.77-411.46-74.12,195.42Z"/><path d="M1531.73 977.27L1320.38 889.33 372.31 910.59 372.29 909.59 1320.57 888.33 1320.66 888.37 1531.07 975.91 1685.76 415.06 1686.72 415.33 1531.73 977.27z"/><path d="M597.69,1391l-.57-.82,338.09-234.61,449.36-399.19-63.71,132.79-.11,.08-384.93,267.11-262.25,232.97-.66-.75,256.03-227.45-331.26,229.87Zm783.83-630.57l-439.43,390.36,377.99-262.3,61.44-128.07Z"/><path d="M508.44 1074.89H509.44V1759.63H508.44z" transform="rotate(-32.59 508.82 1417.103)"/><path d="M678.6,797.43l969.37-259.56-1.74,1.45-262.99,219.57h-.17l-704.48,38.54Zm965.25-257.42l-955.69,255.9,694.7-37.99,261-217.91Z"/><path d="M723.19 793.46H724.19V1303.0700000000002H723.19z" transform="rotate(-9.1 724.085 1048.783)"/><path d="M1842.16,575.77c-9.6-1.57-18.84-3.38-28.61-5.3-14.23-2.8-28.95-5.69-44.79-7.72-1.86-.26-3.37-.9-4.83-1.53-1.46-.63-2.85-1.22-4.56-1.46-43.38-7.57-78.24-13.81-112.91-20.22-.2-.04-.41-.08-.64-.12l-1.16-.21,.96-.68c79.66-57.17,160.88-115.06,239.42-171.04,97.35-69.39,198.02-141.14,296.66-212.19l.58,.81c-98.64,71.05-199.3,142.8-296.66,212.19-78.2,55.74-159.06,113.37-238.38,170.3,.5,.09,1.01,.22,1.39,.31,.17,.03,.22,.03,.23,.03v.03c33.94,6.27,68.23,12.4,110.67,19.81,1.83,.25,3.34,.9,4.8,1.52,1.46,.63,2.85,1.22,4.56,1.46,15.86,2.04,30.6,4.93,44.85,7.73,9.77,1.92,18.99,3.73,28.58,5.29l-.16,.99Z"/><path d="M322.5,167.01l-1.53-.52c-.6-.15-1.03-.26-1.35-.35-.24-.06-.44-.11-.48-.12v-.03c-.24-.09-.33-.16-.37-.25-10.27-3.37-20.39-5.76-31.06-8.27-5.25-1.24-10.68-2.51-16.24-3.94-29.91-7.53-58.48-14.57-86.11-21.37-26.82-6.6-52.15-12.84-78.63-19.5l-.3-.08-.06-.31c-1.6-7.72-2.18-15.9-2.75-23.81-.52-7.26-1.06-14.78-2.38-21.78l.98-.19c1.34,7.06,1.88,14.6,2.4,21.9,.56,7.77,1.13,15.8,2.67,23.37,26.37,6.63,51.61,12.85,78.33,19.42,27.63,6.8,56.2,13.84,86.12,21.37,5.55,1.42,10.97,2.7,16.22,3.94,10.94,2.58,21.31,5.01,31.87,8.53-4.93-6.9-10.48-14.07-15.85-21.02-1-1.29-1.83-2.9-2.64-4.46-.79-1.52-1.61-3.1-2.55-4.31-6.06-6.61-11.33-14.02-16.43-21.18-3.52-4.94-7.15-10.04-10.98-14.78-8.92-12.51-17.78-24.73-26.36-36.55-9.4-12.96-19.12-26.35-28.68-39.82l.82-.58c9.55,13.47,19.27,26.86,28.67,39.81,8.57,11.82,17.44,24.04,26.34,36.53,3.83,4.73,7.47,9.85,11,14.8,5.08,7.13,10.34,14.51,16.38,21.11,1.02,1.32,1.86,2.93,2.67,4.5,.79,1.52,1.61,3.1,2.55,4.31,5.71,7.38,11.61,15.01,16.76,22.3l.98,1.3Z"/><path d="M2077.16,138.98l.55-1.2c4.17-10.04,8.81-19.73,13.3-29.09,2.67-5.56,5.42-11.31,8.07-17.1l.91,.42c-2.65,5.8-5.41,11.55-8.08,17.11-4.21,8.76-8.54,17.8-12.49,27.15h.03l.08,.46s0,.06,0,.1c9.2-3.95,18.75-6.96,28-9.87,8.82-2.78,17.94-5.64,26.52-9.28l.39,.92c-8.63,3.66-17.77,6.53-26.61,9.32-9.71,3.05-19.74,6.21-29.32,10.45-.05,.03-.1,.05-.16,.07l-1.2,.53Z"/><path d="M326.09,494.66c-14.55-15.1-29.21-30.49-43.38-45.38-23.22-24.38-47.23-49.6-71.73-74.54-16.88-17.94-33.86-35.69-50.29-52.86-16.43-17.17-33.41-34.93-50.29-52.86l-.11-.18-1.03-2.95,.02-.13c10.2-60.81,21.42-126.95,34.36-198.5,.23-5.27,1.37-10.89,2.48-16.32l.05-.26,.98,.2-.05,.26c-1.1,5.4-2.24,10.98-2.47,16.23-12.94,71.56-24.15,137.65-34.35,198.43l.91,2.61c16.84,17.91,33.81,35.63,50.21,52.78,16.43,17.17,33.41,34.93,50.29,52.86,24.5,24.94,48.51,50.16,71.74,74.54,14.17,14.88,28.83,30.27,43.38,45.37l-.72,.69Z"/><path d="M399.16 278.78H899.35V279.78H399.16z" transform="rotate(-56.92 649.189 279.285)"/><path d="M1317.9 1287.23L815.98 704.79 326.26 494.77 326.65 493.85 816.59 703.96 816.67 704.05 1318.66 1286.57 1317.9 1287.23z"/><path d="M504.77 116.57H505.77V851.97H504.77z" transform="rotate(-30.05 505.342 484.315)"/><path d="M685.27 1316.16L684.31 1315.87 809.2 899.94 809.58 899.95 1138.79 913.52 1241.67 883.39 1241.95 884.35 1138.91 914.53 1138.83 914.53 809.93 900.97 685.27 1316.16z"/><path d="M1095.41 1099.34L1065.79 1000.48 1065.96 1000.28 1138.46 913.71 1139.23 914.35 1066.91 1000.71 1096.37 1099.06 1095.41 1099.34z"/><path d="M1383.23 758.87L1382.86 757.94 1841.89 574.88 2077.73 137.75 2078.61 138.23 1842.59 575.67 1842.42 575.74 1383.23 758.87z"/><path d="M219.77,573.94c-16.35-65.58-32.63-132.16-48.38-196.55-20.81-85.09-42.32-173.07-64.31-260.03-3.14-14.05-7.98-26.56-13.1-39.81-.95-2.45-1.9-4.91-2.85-7.39l.93-.36c.95,2.48,1.9,4.94,2.84,7.39,5.14,13.28,10,25.82,13.14,39.94,21.99,86.95,43.5,174.94,64.31,260.03,15.74,64.39,32.03,130.97,48.38,196.55l-.97,.24Z"/><path d="M1842.18,576.11l-.36-.55c-7.4-10.43-14.1-21.06-21.2-32.32-5.06-8.03-10.29-16.32-15.87-24.66-5.12-8.57-10.49-17.07-15.68-25.3s-10.56-16.73-15.67-25.28c-4.35-5.92-8.22-12.17-11.97-18.22-3.49-5.64-7.1-11.47-11.05-16.93l.81-.59c3.97,5.48,7.59,11.33,11.09,16.99,3.73,6.03,7.59,12.27,11.95,18.2,5.13,8.58,10.5,17.08,15.68,25.3,5.19,8.23,10.56,16.74,15.68,25.29,5.57,8.33,10.81,16.63,15.87,24.66,6.97,11.06,13.57,21.51,20.81,31.76,66.67-77.26,134.64-155.27,200.37-230.7,50.12-57.52,101.95-117.01,152.93-175.85l.76,.66c-50.98,58.84-102.81,118.32-152.94,175.85-65.84,75.56-133.92,153.7-200.7,231.08-.03,.03-.05,.06-.08,.09h0l-.44,.51Z"/><path d="M1842.69,575.5l-.89-.45c4.55-9.08,9.84-17.65,15.43-26.72,3.97-6.44,8.08-13.11,11.88-19.93,12.37-23.7,24.83-45.51,38.03-68.61,3.08-5.38,6.19-10.83,9.34-16.38,18.08-30.4,34.94-60.22,51.25-89.06,18.56-32.82,36.09-63.82,55.36-95.79l.1-.17,.19-.05c43.25-12.45,87.32-25.71,129.93-38.55,24.74-7.45,50.33-15.15,75.67-22.67l.29,.96c-25.34,7.52-50.92,15.22-75.66,22.67-42.56,12.81-86.56,26.06-129.76,38.5-19.22,31.9-36.72,62.85-55.25,95.6-16.31,28.84-33.17,58.67-51.25,89.07-3.15,5.54-6.26,10.99-9.34,16.37-13.19,23.08-25.65,44.89-38.01,68.59-3.81,6.85-7.92,13.52-11.91,19.98-5.58,9.05-10.86,17.6-15.39,26.65Z"/><path d="M4.48,201.86l.84-1.96c.15-.68,.21-.95,.37-1.06,.18-.69,.21-1.28,.24-2.01,.02-.54,.05-1.16,.15-1.93,.47-1.83,1.01-3.38,1.54-4.87,.52-1.47,1.05-3,1.5-4.72,1.22-9.56,3.34-19.27,5.39-28.67,1.28-5.84,2.6-11.88,3.71-17.93,1.04-4.63,2.34-9.4,3.6-14.01,1.25-4.6,2.54-9.35,3.58-13.94,.83-6.52,1.7-13.32,3.81-19.07l.94,.34c-2.07,5.65-2.93,12.39-3.76,18.9-1.05,4.66-2.35,9.42-3.6,14.03-1.25,4.6-2.55,9.36-3.58,13.95-1.11,6.04-2.44,12.09-3.71,17.94-2.05,9.37-4.17,19.06-5.39,28.64-.47,1.83-1.01,3.37-1.53,4.87-.52,1.48-1.06,3-1.5,4.73-.08,.66-.11,1.26-.13,1.78-.02,.56-.05,1.08-.14,1.64,13.53-11.97,27.43-23.89,40.88-35.44,18.65-16,37.93-32.55,56.36-49.32,1.55-1.6,3.04-3.13,4.23-5.6,5.74-16.79,11.49-33.64,17.18-50.33l.95,.32c-5.69,16.69-11.45,33.53-17.2,50.38-1.29,2.68-2.9,4.34-4.46,5.94-18.46,16.8-37.75,33.36-56.4,49.36-13.89,11.92-28.25,24.24-42.19,36.59l-1.15,1.02v-.02l-.5,.44Z"/><path d="M1951.08,166.06l-.1-.48h0v-.02l-.46-.16,.45,.16-.1-.48,.29-.07h0l23.88-5.27c37.33-8.25,72.6-16.04,110.48-24.11,1.79-.47,3.46-.39,5.07-.3,1.6,.08,3.12,.16,4.79-.28,7.83-1.79,15.45-2.96,22.82-4.08,8.39-1.29,17.07-2.61,25.77-4.84l.25,.97c-8.74,2.24-17.45,3.57-25.86,4.86-7.36,1.13-14.96,2.29-22.74,4.07-1.8,.47-3.47,.39-5.08,.31-1.6-.08-3.12-.16-4.79,.28-36.37,7.74-70.3,15.23-105.97,23.11,22.71-4.3,45.34-8.75,67.43-13.11,32.26-6.35,65.62-12.93,98.55-18.86l.18,.98c-32.92,5.93-66.28,12.5-98.53,18.85-31.37,6.18-63.8,12.57-96.04,18.41h0l-.3,.05Z"/><path d="M110.47,268.74l-.93-1.27c-.49-.66-1.13-.76-1.81-.87-.95-.15-2.13-.33-2.26-2.31-25.15-15.06-50.57-31.65-75.16-47.7-8.25-5.39-16.51-10.78-24.78-16.12l.54-.84c8.27,5.35,16.53,10.74,24.79,16.13,24.66,16.09,50.15,32.73,75.36,47.82l.24,.14v.28c.03,1.4,.47,1.47,1.43,1.62,.46,.07,.99,.15,1.49,.42-.06-1.11-.05-2.53-.03-3.36,0-.35-.01-.44-.01-.46h.02c0-.14,0-.21,.01-.22l.09-.23c.05-24.57-.68-49.55-1.39-73.75-.72-24.62-1.47-50.08-1.38-74.89l.02-.14c2.56-8.39,5.39-17.04,8.13-25.41,3.1-9.49,6.31-19.3,9.28-29.15l.96,.29c-2.96,9.86-6.18,19.68-9.28,29.17-2.73,8.34-5.55,16.96-8.1,25.32-.09,24.77,.66,50.19,1.38,74.79,.76,25.99,1.55,52.85,1.37,79.18l.03,1.57Z"/><path d="M1843.75,586.87l1.67-1.05c1.11-.6,2-1.41,2.67-2.45,.84-.92,1.41-1.99,1.7-3.23,.4-1.26,.45-2.53,.17-3.79-.06-1.26-.43-2.44-1.13-3.53l-1.49-1.92c-1.19-1.18-2.58-1.99-4.19-2.44l-2.53-.34c-1.71,0-3.31,.44-4.79,1.3l-1.67,1.05c-1.11,.6-2,1.41-2.67,2.45-.84,.92-1.41,1.99-1.7,3.23-.4,1.26-.45,2.53-.17,3.79,.06,1.26,.43,2.44,1.13,3.53l1.49,1.92c1.19,1.18,2.58,1.99,4.19,2.44l2.53,.34c1.71,0,3.31-.44,4.79-1.3h0Z"/><path d="M318.23,177.32c12.23,0,12.25-19,0-19s-12.25,19,0,19h0Z"/><path d="M99.87,113.39l.1,1.97c-.05,1.31,.22,2.53,.82,3.66,.38,1.18,1.04,2.2,1.96,3.06,.86,.93,1.88,1.58,3.06,1.96,1.13,.59,2.35,.87,3.66,.82l2.53-.34c1.61-.45,3.01-1.27,4.19-2.44l1.49-1.92c.86-1.48,1.29-3.08,1.3-4.79l-.1-1.97c.05-1.31-.22-2.53-.82-3.66-.38-1.18-1.04-2.2-1.96-3.06-.86-.93-1.88-1.58-3.06-1.96-1.13-.59-2.35-.87-3.66-.82l-2.53,.34c-1.61,.45-3.01,1.27-4.19,2.44l-1.49,1.92c-.86,1.48-1.29,3.08-1.3,4.79h0Z"/><path d="M112.29,274.22c12.23,0,12.25-19,0-19s-12.25,19,0,19h0Z"/><path d="M1645.27,542.49c12.23,0,12.25-19,0-19s-12.25,19,0,19h0Z"/><path d="M1447.13,566.18l1.05,1.67c.6,1.11,1.41,2,2.45,2.67,.92,.84,1.99,1.41,3.23,1.7,1.26,.4,2.53,.45,3.79,.17,1.26-.06,2.44-.43,3.53-1.13l1.92-1.49c1.18-1.19,1.99-2.58,2.44-4.19l.34-2.53c0-1.71-.44-3.31-1.3-4.79l-1.05-1.67c-.6-1.11-1.41-2-2.45-2.67-.92-.84-1.99-1.41-3.23-1.7-1.26-.4-2.53-.45-3.79-.17-1.26,.06-2.44,.43-3.53,1.13l-1.92,1.49c-1.18,1.19-1.99,2.58-2.44,4.19l-.34,2.53c0,1.71,.44,3.31,1.3,4.79h0Z"/><path d="M1320.73,895.04c12.23,0,12.25-19,0-19s-12.25,19,0,19h0Z"/><path d="M1949.55,171.75c7.08,0,7.09-11,0-11s-7.09,11,0,11h0Z"/><path d="M2086.27,142.57c10.3,0,10.31-16,0-16s-10.31,16,0,16h0Z"/><path d="M1384.23,761.23c8.36,0,8.38-13,0-13s-8.38,13,0,13h0Z"/><path d="M1529.78,984.81c10.94,0,10.96-17,0-17s-10.96,17,0,17h0Z"/><path d="M694.47,1713.69c9.01,0,9.02-14,0-14s-9.02,14,0,14h0Z"/><path d="M5.8,206.05c7.72,0,7.73-12,0-12s-7.73,12,0,12h0Z"/><path d="M224.38,581.22c7.72,0,7.73-12,0-12s-7.73,12,0,12h0Z"/><path d="M592.63,409.68l1.97-.1c1.59-.08,3.1-.61,4.24-1.76,.59-.54,1-1.19,1.24-1.93,.38-.72,.55-1.49,.52-2.31-.07-1.55-.58-3.16-1.76-4.24s-2.65-1.84-4.24-1.76l-1.97,.1c-1.59,.08-3.1,.61-4.24,1.76-.59,.54-1,1.19-1.24,1.93-.38,.72-.55,1.49-.52,2.31,.07,1.55,.58,3.16,1.76,4.24s2.65,1.84,4.24,1.76h0Z"/><path d="M512.67,498.65c9.65,0,9.67-15,0-15s-9.67,15,0,15h0Z"/><path d="M793.16,412.8c7.08,0,7.09-11,0-11s-7.09,11,0,11h0Z"/><path d="M114.59,1642.69c8.36,0,8.38-13,0-13s-8.38,13,0,13h0Z"/><path d="M1684.76,425.08c12.23,0,12.25-19,0-19s-12.25,19,0,19h0Z"/><path d="M1425.11,212.74c10.3,0,10.31-16,0-16s-10.31,16,0,16h0Z"/><path d="M248.41,1745.93c7.72,0,7.73-12,0-12s-7.73,12,0,12h0Z"/><path d="M2178.96,254.19c7.08,0,7.09-11,0-11s-7.09,11,0,11h0Z"/><path d="M2022.19,266.2c9.65,0,9.67-15,0-15s-9.67,15,0,15h0Z"/><path d="M1185.95,693.75c6.43,0,6.45-10,0-10s-6.45,10,0,10h0Z"/><path d="M1143.6,911.25l-1.05-1.67c-.75-1.2-1.91-2.15-3.29-2.53-.73-.23-1.46-.26-2.19-.1-.73,.03-1.41,.25-2.04,.65-1.17,.76-2.21,1.88-2.53,3.29s-.24,2.97,.55,4.24l1.05,1.67c.75,1.2,1.91,2.15,3.29,2.53,.73,.23,1.46,.26,2.19,.1,.73-.03,1.41-.25,2.04-.65,1.17-.76,2.21-1.88,2.53-3.29s.24-2.97-.55-4.24h0Z"/><path d="M1589.26,300.26c3.86,0,3.87-6,0-6s-3.87,6,0,6h0Z"/><path d="M785.35,75.67c5.79,0,5.8-9,0-9s-5.8,9,0,9h0Z"/><path d="M1854.59,166.53c5.15,0,5.16-8,0-8s-5.16,8,0,8h0Z"/><path d="M317.06,171.17c5.15,0,5.16-8,0-8s-5.16,8,0,8h0Z"/><path d="M579.05,604.22c5.15,0,5.16-8,0-8s-5.16,8,0,8h0Z"/><path d="M1232.25,812.74c5.15,0,5.16-8,0-8s-5.16,8,0,8h0Z"/><path d="M748.46,775.48c12.23,0,12.25-19,0-19s-12.25,19,0,19h0Z"/><path d="M681.72,869.3c12.23,0,12.25-19,0-19s-12.25,19,0,19h0Z"/><path d="M372.41,918.54c10.3,0,10.31-16,0-16s-10.31,16,0,16h0Z"/><path d="M874.7,1272.28c9.01,0,9.02-14,0-14s-9.02,14,0,14h0Z"/><path d="M781,1329.26l1.43-.9c.7-.38,1.26-.89,1.68-1.55,.53-.58,.89-1.26,1.07-2.04,.25-.8,.29-1.6,.11-2.39-.04-.8-.27-1.54-.71-2.23l-.94-1.21c-.75-.74-1.63-1.26-2.65-1.54l-1.6-.21c-1.08,0-2.09,.28-3.03,.82l-1.43,.9c-.7,.38-1.26,.89-1.68,1.55-.53,.58-.89,1.26-1.07,2.04-.25,.8-.29,1.6-.11,2.39,.04,.8,.27,1.54,.71,2.23l.94,1.21c.75,.74,1.63,1.26,2.65,1.54l1.6,.21c1.08,0,2.09-.28,3.03-.82h0Z"/><path d="M815.84,1286.22l1.43-.9c1.09-.68,1.95-1.74,2.3-2.99,.21-.66,.24-1.33,.09-1.99-.03-.67-.23-1.29-.59-1.86-.69-1.07-1.71-2.01-2.99-2.3s-2.7-.22-3.85,.5l-1.43,.9c-1.09,.68-1.95,1.74-2.3,2.99-.21,.66-.24,1.33-.09,1.99,.03,.67,.23,1.29,.59,1.86,.69,1.07,1.71,2.01,2.99,2.3,1.29,.29,2.7,.22,3.85-.5h0Z"/><path d="M720.33,1401.08l1.43-.9c.87-.47,1.58-1.12,2.1-1.93,.66-.72,1.11-1.57,1.34-2.55,.31-1,.36-1.99,.13-2.99-.05-1-.34-1.93-.89-2.79l-1.17-1.52c-.94-.93-2.04-1.57-3.31-1.93l-1.99-.27c-1.35,0-2.62,.35-3.79,1.02l-1.43,.9c-.87,.47-1.58,1.12-2.1,1.93-.66,.72-1.11,1.57-1.34,2.55-.31,1-.36,1.99-.13,2.99,.05,1,.34,1.93,.89,2.79l1.17,1.52c.94,.93,2.04,1.57,3.31,1.93l1.99,.27c1.35,0,2.62-.35,3.79-1.02h0Z"/><path d="M765.84,1305.44l.97-.61c1.28-.69,2.31-1.64,3.09-2.83,.97-1.06,1.63-2.31,1.97-3.74,.46-1.46,.52-2.92,.2-4.39-.07-1.46-.5-2.83-1.31-4.09l-1.72-2.23c-1.37-1.36-2.99-2.31-4.85-2.83l-2.92-.39c-1.99,0-3.84,.51-5.55,1.5l-.97,.61c-1.28,.69-2.31,1.64-3.09,2.83-.97,1.06-1.63,2.31-1.97,3.74-.46,1.46-.52,2.92-.2,4.39,.07,1.46,.5,2.83,1.31,4.09l1.72,2.23c1.37,1.36,2.99,2.31,4.85,2.83l2.92,.39c1.99,0,3.84-.51,5.55-1.5h0Z"/><path d="M542.7,894.5c16.09,0,16.11-25,0-25s-16.11,25,0,25h0Z"/><path d="M836.88,151.21l-2.25,.12c-1.86-.07-3.59,.32-5.2,1.16-1.67,.54-3.12,1.47-4.34,2.79-1.32,1.22-2.25,2.67-2.79,4.34-.85,1.61-1.23,3.34-1.16,5.2l.48,3.59c.64,2.29,1.8,4.27,3.47,5.96l2.73,2.11c2.11,1.22,4.38,1.84,6.81,1.84l2.25-.12c1.86,.07,3.59-.32,5.2-1.16,1.67-.54,3.12-1.47,4.34-2.79,1.32-1.22,2.25-2.67,2.79-4.34,.85-1.61,1.23-3.34,1.16-5.2l-.48-3.59c-.64-2.29-1.8-4.27-3.47-5.96l-2.73-2.11c-2.11-1.22-4.38-1.84-6.81-1.84h0Z"/><path d="M747.4,233.34c15.44,0,15.47-24,0-24s-15.47,24,0,24h0Z"/><path d="M512.67,502.15c14.16,0,14.18-22,0-22s-14.18,22,0,22h0Z"/><path d="M318.23,181.82l1.24-.07c7.55-.4,14-6.15,14-14,0-7.27-6.41-14.4-14-14l-1.24,.07c-7.55,.4-14,6.15-14,14,0,7.27,6.41,14.4,14,14l1.24-.07c7.55-.4,14-6.15,14-14,0-7.27-6.41-14.4-14-14l-1.24,.07c-7.55,.4-14,6.15-14,14,0,7.27,6.41,14.4,14,14h0Z"/><path d="M1888.63,42.79c15.44,0,15.47-24,0-24s-15.47,24,0,24h0Z"/><path d="M1817.14,96.36c12.87,0,12.89-20,0-20s-12.89,20,0,20h0Z"/><path d="M222.13,588.34l2.25-.12c1.79,.07,3.46-.31,5.01-1.12,1.61-.52,3.01-1.42,4.18-2.69,1.27-1.18,2.16-2.57,2.69-4.18,.81-1.55,1.19-3.22,1.12-5.01l-.46-3.46c-.62-2.2-1.73-4.11-3.34-5.74l-2.63-2.03c-2.03-1.18-4.21-1.77-6.56-1.77l-2.25,.12c-1.79-.07-3.46,.31-5.01,1.12-1.61,.52-3.01,1.42-4.18,2.69-1.27,1.18-2.16,2.57-2.69,4.18-.81,1.55-1.19,3.22-1.12,5.01l.46,3.46c.62,2.2,1.73,4.11,3.34,5.74l2.63,2.03c2.03,1.18,4.21,1.77,6.56,1.77h0Z"/><path d="M326.68,502.15c9.01,0,9.02-14,0-14s-9.02,14,0,14h0Z"/><path d="M468.85,602.55c10.3,0,10.31-16,0-16s-10.31,16,0,16h0Z"/><path d="M408.84,687.29c10.94,0,10.96-17,0-17s-10.96,17,0,17h0Z"/><path d="M120.43,188.76l.37,1.06c.14,.59,.41,1.1,.81,1.53,.32,.49,.74,.88,1.26,1.16,.52,.33,1.07,.51,1.67,.53,.6,.13,1.2,.11,1.79-.08l1.07-.45c.68-.4,1.21-.94,1.61-1.61l.45-1.07c.21-.8,.21-1.6,0-2.39l-.37-1.06c-.14-.59-.41-1.1-.81-1.53-.32-.49-.74-.88-1.26-1.16-.52-.33-1.07-.51-1.67-.53-.6-.13-1.2-.11-1.79,.08l-1.07,.45c-.68,.4-1.21,.94-1.61,1.61l-.45,1.07c-.21,.8-.21,1.6,0,2.39h0Z"/><path d="M131.31,109.56l.37,1.06c.23,.98,.68,1.83,1.34,2.55,.53,.82,1.23,1.46,2.1,1.93,.86,.55,1.79,.84,2.79,.89,1,.22,1.99,.18,2.99-.13l1.79-.76c1.13-.67,2.02-1.56,2.69-2.69l.76-1.79c.36-1.33,.36-2.66,0-3.99l-.37-1.06c-.23-.98-.68-1.83-1.34-2.55-.53-.82-1.23-1.46-2.1-1.93-.86-.55-1.79-.84-2.79-.89-1-.22-1.99-.18-2.99,.13l-1.79,.76c-1.13,.67-2.02,1.56-2.69,2.69l-.76,1.79c-.36,1.33-.36,2.66,0,3.99h0Z"/><path d="M2005.31,232.34c8.36,0,8.38-13,0-13s-8.38,13,0,13h0Z"/><path d="M1850.75,154.87c7.72,0,7.73-12,0-12s-7.73,12,0,12h0Z"/><path d="M1320.25,774.26c9.65,0,9.67-15,0-15s-9.67,15,0,15h0Z"/><path d="M1342.09,697.77c8.36,0,8.38-13,0-13s-8.38,13,0,13h0Z"/><path d="M1104.27,738.13c10.3,0,10.31-16,0-16s-10.31,16,0,16h0Z"/><path d="M1075.5,802.96c8.36,0,8.38-13,0-13s-8.38,13,0,13h0Z"/><path d="M456.78,903.75c9.65,0,9.67-15,0-15s-9.67,15,0,15h0Z"/><path d="M675.84,1393.93c8.36,0,8.38-13,0-13s-8.38,13,0,13h0Z"/><path d="M601.57,1393.76c9.65,0,9.67-15,0-15s-9.67,15,0,15h0Z"/><path d="M898.8,1228.41c11.58,0,11.6-18,0-18s-11.6,18,0,18h0Z"/><path d="M918.88,1175.96c10.3,0,10.31-16,0-16s-10.31,16,0,16h0Z"/><path d="M1242.69,894.15c12.23,0,12.25-19,0-19s-12.25,19,0,19h0Z"/><path d="M683.26,804.05c13.51,0,13.53-21,0-21s-13.53,21,0,21h0Z"/><path d="M1881.93,214.66c14.16,0,14.18-22,0-22s-14.18,22,0,22h0Z"/><path d="M121.8,1630.57l-.84-.75c-.82-.88-1.78-1.5-2.9-1.86-1.07-.56-2.23-.82-3.47-.78-1.24-.05-2.39,.21-3.47,.78-1.12,.36-2.08,.98-2.9,1.86l-1.41,1.82c-.81,1.4-1.22,2.92-1.23,4.54l.32,2.39c.43,1.52,1.2,2.85,2.31,3.97l.84,.75c.82,.88,1.78,1.5,2.9,1.86,1.07,.56,2.23,.82,3.47,.78,1.24,.05,2.39-.21,3.47-.78,1.12-.36,2.08-.98,2.9-1.86l1.41-1.82c.81-1.4,1.22-2.92,1.23-4.54l-.32-2.39c-.43-1.52-1.2-2.85-2.31-3.97h0Z"/><path d="M448.52,1327.66c8.36,0,8.38-13,0-13s-8.38,13,0,13h0Z"/><path d="M1021.33,1087.2c9.65,0,9.67-15,0-15s-9.67,15,0,15h0Z"/><path d="M1095.89,1105.2c7.72,0,7.73-12,0-12s-7.73,12,0,12h0Z"/><path d="M1060.66,1010.67c9.65,0,9.67-15,0-15s-9.67,15,0,15h0Z"/><path d="M971.17,1181.22c7.72,0,7.73-12,0-12s-7.73,12,0,12h0Z"/><path d="M1175.29,791.15c9.01,0,9.02-14,0-14s-9.02,14,0,14h0Z"/><path d="M1309.69,635.87c8.36,0,8.38-13,0-13s-8.38,13,0,13h0Z"/><path d="M1443.03,423.42c9.01,0,9.02-14,0-14s-9.02,14,0,14h0Z"/><path d="M1455.71,501.44c7.72,0,7.73-12,0-12s-7.73,12,0,12h0Z"/><path d="M1545.48,322.6c10.3,0,10.31-16,0-16s-10.31,16,0,16h0Z"/><path d="M324.57,1135.28c9.01,0,9.02-14,0-14s-9.02,14,0,14h0Z"/><path d="M254.22,1252.05c7.08,0,7.09-11,0-11s-7.09,11,0,11h0Z"/><path d="M1744.43,426.2l-.75,.84c-.88,.82-1.5,1.78-1.86,2.9-.56,1.07-.82,2.23-.78,3.47-.05,1.24,.21,2.39,.78,3.47,.36,1.12,.98,2.08,1.86,2.9l1.82,1.41c1.4,.81,2.92,1.22,4.54,1.23l2.39-.32c1.52-.43,2.85-1.2,3.97-2.31l.75-.84c.88-.82,1.5-1.78,1.86-2.9,.56-1.07,.82-2.23,.78-3.47,.05-1.24-.21-2.39-.78-3.47-.36-1.12-.98-2.08-1.86-2.9l-1.82-1.41c-1.4-.81-2.92-1.22-4.54-1.23l-2.39,.32c-1.52,.43-2.85,1.2-3.97,2.31h0Z"/><path d="M1855.93,462.63c7.72,0,7.73-12,0-12s-7.73,12,0,12h0Z"/><path d="M1797.28,281.85l-.75,.84c-.88,.82-1.5,1.78-1.86,2.9-.56,1.07-.82,2.23-.78,3.47-.05,1.24,.21,2.39,.78,3.47,.36,1.12,.98,2.08,1.86,2.9l1.82,1.41c1.4,.81,2.92,1.22,4.54,1.23l2.39-.32c1.52-.43,2.85-1.2,3.97-2.31l.75-.84c.88-.82,1.5-1.78,1.86-2.9,.56-1.07,.82-2.23,.78-3.47,.05-1.24-.21-2.39-.78-3.47-.36-1.12-.98-2.08-1.86-2.9l-1.82-1.41c-1.4-.81-2.92-1.22-4.54-1.23l-2.39,.32c-1.52,.43-2.85,1.2-3.97,2.31h0Z"/><path d="M1618.85,325.94c7.72,0,7.73-12,0-12s-7.73,12,0,12h0Z"/><path d="M1450.8,520.11c9.65,0,9.67-15,0-15s-9.67,15,0,15h0Z"/><path d="M1236.8,679.03c10.94,0,10.96-17,0-17s-10.96,17,0,17h0Z"/><path d="M447.57,556.03c9.65,0,9.67-15,0-15s-9.67,15,0,15h0Z"/><path d="M386.82,530.76c9.65,0,9.67-15,0-15s-9.67,15,0,15h0Z"/><path d="M380.6,505.88c7.08,0,7.09-11,0-11s-7.09,11,0,11h0Z"/><path d="M430.18,478.27l-.56-1.59c-.26-1.11-.77-2.07-1.52-2.89-.6-.93-1.39-1.66-2.38-2.19-.98-.62-2.03-.96-3.16-1.01-1.13-.25-2.26-.2-3.39,.15l-2.03,.86c-1.28,.76-2.29,1.77-3.05,3.05l-.86,2.03c-.4,1.51-.4,3.01,0,4.52l.56,1.59c.26,1.11,.77,2.07,1.52,2.89,.6,.93,1.39,1.66,2.38,2.19,.98,.62,2.03,.96,3.16,1.01,1.13,.25,2.26,.2,3.39-.15l2.03-.86c1.28-.76,2.29-1.77,3.05-3.05l.86-2.03c.4-1.51,.4-3.01,0-4.52h0Z"/><path d="M583.74,554.33c13.51,0,13.53-21,0-21s-13.53,21,0,21h0Z"/><path d="M301.67,482.3c10.3,0,10.31-16,0-16s-10.31,16,0,16h0Z"/><path d="M325.59,472.93c9.01,0,9.02-14,0-14s-9.02,14,0,14h0Z"/><path d="M307.18,455.11c7.72,0,7.73-12,0-12s-7.73,12,0,12h0Z"/><path d="M96.86,1728.26l1.26,1.12c.72,.78,1.58,1.33,2.57,1.65,.95,.5,1.98,.73,3.08,.69,1.1,.04,2.13-.19,3.08-.69,.99-.32,1.85-.87,2.57-1.65l1.25-1.62c.72-1.25,1.09-2.59,1.09-4.04l-.29-2.13c-.38-1.36-1.07-2.53-2.06-3.53l-1.26-1.12c-.72-.78-1.58-1.33-2.57-1.65-.95-.5-1.98-.73-3.08-.69-1.1-.04-2.13,.19-3.08,.69-.99,.32-1.85,.87-2.57,1.65l-1.25,1.62c-.72,1.25-1.09,2.59-1.09,4.04l.29,2.13c.38,1.36,1.07,2.53,2.06,3.53h0Z"/><path d="M686.19,1320.74c10.3,0,10.31-16,0-16s-10.31,16,0,16h0Z"/><path d="M811.22,911.14c14.8,0,14.82-23,0-23s-14.82,23,0,23h0Z"/><path d="M1541.05,79.86c11.58,0,11.6-18,0-18s-11.6,18,0,18h0Z"/><path d="M1594.01,588.78c10.94,0,10.96-17,0-17s-10.96,17,0,17h0Z"/><path d="M1618.8,560.66l-1.26-1.12c-.68-.73-1.48-1.25-2.41-1.55-.89-.47-1.86-.68-2.89-.65-1.03-.04-2,.18-2.89,.65-.93,.3-1.73,.82-2.41,1.55l-1.17,1.52c-.68,1.17-1.02,2.43-1.02,3.79l.27,1.99c.36,1.27,1,2.37,1.93,3.31l1.26,1.12c.68,.73,1.48,1.25,2.41,1.55,.89,.47,1.86,.68,2.89,.65,1.03,.04,2-.18,2.89-.65,.93-.3,1.73-.82,2.41-1.55l1.17-1.52c.68-1.17,1.02-2.43,1.02-3.79l-.27-1.99c-.36-1.27-1-2.37-1.93-3.31h0Z"/><path d="M1449.93,602.43c12.87,0,12.89-20,0-20s-12.89,20,0,20h0Z"/><path d="M1414.57,588.37c9.01,0,9.02-14,0-14s-9.02,14,0,14h0Z"/><path d="M1901.4,365.19c11.58,0,11.6-18,0-18s-11.6,18,0,18h0Z"/><path d="M157.06,323.44l1.59-.56c.98-.23,1.83-.68,2.55-1.34,.82-.53,1.46-1.23,1.93-2.1,.55-.86,.84-1.79,.89-2.79,.22-1,.18-1.99-.13-2.99l-.76-1.79c-.67-1.13-1.56-2.02-2.69-2.69l-1.79-.76c-1.33-.36-2.66-.36-3.99,0l-1.59,.56c-.98,.23-1.83,.68-2.55,1.34-.82,.53-1.46,1.23-1.93,2.1-.55,.86-.84,1.79-.89,2.79-.22,1-.18,1.99,.13,2.99l.76,1.79c.67,1.13,1.56,2.02,2.69,2.69l1.79,.76c1.33,.36,2.66,.36,3.99,0h0Z"/><path d="M142.95,262.51c8.36,0,8.38-13,0-13s-8.38,13,0,13h0Z"/><path d="M600.29,648.72l.88-.31c7.85-2.75,4.47-15.31-3.46-12.54l-.88,.31c-7.85,2.75-4.47,15.31,3.46,12.54l.88-.31c7.85-2.75,4.47-15.31-3.46-12.54l-.88,.31c-7.85,2.75-4.47,15.31,3.46,12.54h0Z"/></g></g></svg>